<svg width="83" height="50" fill="none" xmlns="http://www.w3.org/2000/svg"><g clip-path="url(#clip0)"><path d="M17.574 0l5.94 8.416H11.758L17.574 0z" fill="#E93447"/><path d="M29.332 0l5.817 8.416H23.515L29.332 0z" fill="#F58720"/><path d="M41.089 0l5.817 8.416H35.148L41.09 0z" fill="#F7B418"/><path d="M52.723 0l5.94 8.416H46.906L52.723 0z" fill="#03984A"/><path d="M64.48 0l5.817 8.416H58.663L64.48 0z" fill="#4DAD4D"/><path d="M64.48 0l-5.817 8.416L52.724 0" fill="#0AA54D"/><path d="M52.723 0l-5.817 8.416L41.089 0" fill="#048C47"/><path d="M41.09 0l-5.941 8.416L29.332 0" fill="#F7A51E"/><path d="M29.332 0l-5.817 8.416L17.575 0" fill="#EF6825"/><path d="M17.574 16.708H5.941l5.817-8.292 5.816 8.292z" fill="#E42730"/><path d="M41.09 16.708H29.331l5.817-8.292 5.94 8.292z" fill="#EF598C"/><path d="M52.723 16.708H41.089l5.817-8.292 5.817 8.292z" fill="#8AC790"/><path d="M58.663 8.416h11.634l-5.817 8.292-5.817-8.292z" fill="#31AB73"/><path d="M76.238 16.708H64.48l5.817-8.292 5.94 8.292z" fill="#7EC042"/><path d="M46.906 8.416h11.757l-5.94 8.292-5.817-8.292z" fill="#1AB8AC"/><path d="M35.148 8.416h11.758l-5.817 8.292-5.94-8.292z" fill="#FFCB09"/><path d="M23.515 8.416h11.634l-5.817 8.292-5.817-8.292z" fill="#E94C4D"/><path d="M11.757 8.416h11.758l-5.94 8.292-5.818-8.292z" fill="#E94944"/><path d="M11.757 25H0l5.94-8.292L11.758 25z" fill="#E82629"/><path d="M35.149 25H23.515l5.817-8.292L35.149 25z" fill="#E62065"/><path d="M58.663 25H46.906l5.817-8.292L58.663 25z" fill="#2AAAE1"/><path d="M82.055 25H70.297l5.94-8.292L82.056 25z" fill="#CDDB35"/><path d="M64.48 16.708h11.758L70.298 25l-5.818-8.292z" fill="#A2CB39"/><path d="M29.332 16.708h11.757L35.15 25l-5.817-8.292z" fill="#CC3869"/><path d="M5.94 16.708h11.634L11.757 25l-5.816-8.292z" fill="#BE2528"/><path d="M23.391 41.584H11.757L17.574 50l5.817-8.416z" fill="#811E59"/><path d="M35.148 41.584H23.392L29.208 50l5.94-8.416z" fill="#741C55"/><path d="M46.906 41.584H35.148L40.965 50l5.94-8.416z" fill="#3B488B"/><path d="M58.663 41.584H46.906L52.723 50l5.94-8.416z" fill="#1B6883"/><path d="M70.297 41.584H58.663L64.48 50l5.817-8.416z" fill="#008B80"/><path d="M52.723 50H64.48l-5.817-8.416L52.724 50z" fill="#039588"/><path d="M40.965 50h11.758l-5.817-8.416L40.966 50z" fill="#4556A3"/><path d="M29.208 50h11.757l-5.816-8.416L29.208 50z" fill="#7C3580"/><path d="M17.574 50h11.634l-5.817-8.416L17.574 50z" fill="#A52260"/><path d="M17.574 33.292H5.941l5.817 8.292 5.816-8.292z" fill="#AF2148"/><path d="M41.09 33.292H29.331l5.817 8.292 5.94-8.292z" fill="#8F4197"/><path d="M52.723 33.292H41.089l5.817 8.292 5.817-8.292z" fill="#0A68AF"/><path d="M58.663 41.584h11.634l-5.817-8.292-5.817 8.292z" fill="#1F9868"/><path d="M76.238 33.292H64.48l5.817 8.292 5.94-8.292z" fill="#34A94A"/><path d="M46.906 41.584h11.757l-5.94-8.292-5.817 8.292z" fill="#1D7FA3"/><path d="M35.148 41.584h11.758l-5.817-8.292-5.94 8.292z" fill="#5D568C"/><path d="M23.391 41.584H35.15l-5.817-8.292-5.94 8.292z" fill="#822D73"/><path d="M11.757 41.584h11.634l-5.817-8.292-5.817 8.292z" fill="#BF247C"/><path d="M11.757 25H0l5.94 8.292L11.758 25z" fill="#9B2022"/><path d="M35.149 25H23.515l5.817 8.292L35.149 25z" fill="#AB2070"/><path d="M58.663 25H46.906l5.817 8.292L58.663 25z" fill="#1787C7"/><path d="M82.055 25H70.297l5.94 8.292L82.056 25z" fill="#A2CB39"/><path d="M64.48 33.292h11.758L70.298 25l-5.818 8.292z" fill="#7EC042"/><path d="M41.09 33.292h11.633L46.906 25l-5.817 8.292z" fill="#0878BD"/><path d="M5.94 33.292h11.634L11.757 25l-5.816 8.292z" fill="#CB1D57"/></g><defs><clipPath id="clip0"><path fill="#fff" d="M0 0h82.055v50H0z"/></clipPath></defs></svg>